<svg xmlns="http://www.w3.org/2000/svg" viewBox="0 0 15.64 15.61"><defs><style>.cls-1{fill:none;}.cls-1,.cls-2{stroke:#ffad00;stroke-miterlimit:10;}.cls-2{fill:#ffad00;}</style></defs><title>half_star</title><g id="Layer_2" data-name="Layer 2"><g id="Layer_1-2" data-name="Layer 1"><path class="cls-1" d="M12,14.67,8.41,12.91a.59.59,0,0,0-.59,0L4.37,15a.62.62,0,0,1-.94-.61l.51-4.17a.64.64,0,0,0-.2-.53L.7,6.9A.62.62,0,0,1,1,5.83l4-.78a.64.64,0,0,0,.46-.37L7,.88A.62.62,0,0,1,8.16.83l1.93,3.64a.59.59,0,0,0,.48.32l4,.42a.62.62,0,0,1,.39,1L12.19,9.33a.62.62,0,0,0-.15.54L12.9,14A.62.62,0,0,1,12,14.67Z"/><path class="cls-2" d="M8.11,12.84a.75.75,0,0,0-.29.09L4.37,15a.62.62,0,0,1-.94-.61l.51-4.17a.64.64,0,0,0-.2-.53L.7,6.9A.62.62,0,0,1,1,5.83l4-.78a.64.64,0,0,0,.46-.37L7,.88A.61.61,0,0,1,7.58.5"/></g></g></svg>