<svg xmlns="http://www.w3.org/2000/svg" viewBox="0 0 33 21"><defs><style>.cls-1{fill:#fff;}</style></defs><title>menu_icon</title><g id="Layer_2" data-name="Layer 2"><g id="Layer_1-2" data-name="Layer 1"><line class="cls-1" x1="31.5" y1="1.5" x2="1.5" y2="1.5"/><path class="cls-1" d="M31.5,3H1.5a1.5,1.5,0,0,1,0-3h30a1.5,1.5,0,0,1,0,3Z"/><line class="cls-1" x1="31.5" y1="10.5" x2="1.5" y2="10.5"/><path class="cls-1" d="M31.5,12H1.5a1.5,1.5,0,0,1,0-3h30a1.5,1.5,0,0,1,0,3Z"/><line class="cls-1" x1="31.5" y1="19.5" x2="1.5" y2="19.5"/><path class="cls-1" d="M31.5,21H1.5a1.5,1.5,0,0,1,0-3h30a1.5,1.5,0,0,1,0,3Z"/></g></g></svg>